<?xml version="1.0" encoding="UTF-8"?>
<svg xmlns="http://www.w3.org/2000/svg" xmlns:xlink="http://www.w3.org/1999/xlink" width="50pt" height="57pt" viewBox="0 0 50 57" version="1.1">
<g id="surface1">
<path style=" stroke:none;fill-rule:nonzero;fill:rgb(0%,0%,0%);fill-opacity:1;" d="M 50 8.144531 L 50 13.230469 C 50 17.71875 38.800781 21.375 25 21.375 C 11.199219 21.375 0 17.71875 0 13.230469 L 0 8.144531 C 0 3.65625 11.199219 0 25 0 C 38.800781 0 50 3.65625 50 8.144531 Z M 50 19.59375 L 50 31.042969 C 50 35.53125 38.800781 39.1875 25 39.1875 C 11.199219 39.1875 0 35.53125 0 31.042969 L 0 19.59375 C 5.371094 23.285156 15.203125 25 25 25 C 34.796875 25 44.628906 23.285156 50 19.59375 Z M 50 37.40625 L 50 48.855469 C 50 53.34375 38.800781 57 25 57 C 11.199219 57 0 53.34375 0 48.855469 L 0 37.40625 C 5.371094 41.097656 15.203125 42.8125 25 42.8125 C 34.796875 42.8125 44.628906 41.097656 50 37.40625 Z M 50 37.40625 "/>
</g>
</svg>
